<svg width="456" height="76" viewBox="0 0 456 76" fill="none" xmlns="http://www.w3.org/2000/svg">
<path fill-rule="evenodd" clip-rule="evenodd" d="M90.6237 1.60562H87.7223L86.7249 4.5521C86.8256 4.4575 86.9273 4.36384 87.0298 4.27113L87.6429 3.71678C88.5495 2.89712 89.5501 2.18847 90.6237 1.60562ZM74.6089 30.4328H56.7011V1.60562H32.2539V1.67181C31.6423 1.62789 31.0258 1.60562 30.4049 1.60562C13.6127 1.60562 0 17.8999 0 38C0 58.1 13.6127 74.3943 30.4049 74.3943C31.0258 74.3943 31.6423 74.3721 32.2539 74.3282V74.3943H56.4956V45.3269H72.8004L73.436 37.4754L74.6089 30.4328ZM72.7754 48.9256L63.3778 74.3943H74.1033H75.9214L74.7391 69.8909L73.436 62.0668L72.7754 53.9073V48.9256ZM51.2955 38.1201C51.2955 52.4488 40.9834 64.0646 28.2628 64.0646C15.5422 64.0646 5.23012 52.4488 5.23012 38.1201C5.23012 23.7913 15.5422 12.1756 28.2628 12.1756C40.9834 12.1756 51.2955 23.7913 51.2955 38.1201Z" fill="#B3D1FF"/>
<ellipse cx="28.3602" cy="38" rx="21.2447" ry="23.6623" fill="#FE4542"/>
<path d="M56.5171 30.4328H78.0667L74.058 46.0476H56.5171V30.4328Z" fill="#B3D1FF"/>
<path d="M87.9575 1.60562H100.75L75.6478 74.3943H59.4763L87.9575 1.60562Z" fill="#013179"/>
<path d="M199.662 61.8248V35.1506C199.662 33.1073 199.359 31.3354 198.753 29.8349C198.17 28.3025 197.284 27.1212 196.095 26.2911C194.905 25.461 193.436 25.046 191.687 25.046C190.055 25.046 188.621 25.4291 187.385 26.1953C186.172 26.9616 185.216 27.9672 184.516 29.2124C183.84 30.4575 183.502 31.7983 183.502 33.235H177.031C177.031 31.3833 177.381 29.5476 178.08 27.7278C178.78 25.908 179.782 24.2638 181.088 22.7952C182.418 21.2947 184.003 20.1134 185.846 19.2514C187.711 18.3575 189.787 17.9105 192.072 17.9105C194.824 17.9105 197.249 18.5491 199.348 19.8261C201.47 21.1031 203.125 23.0347 204.315 25.6207C205.527 28.1748 206.134 31.3833 206.134 35.2463V59.3825C206.134 61.1065 206.239 62.9422 206.448 64.8897C206.682 66.8372 207.02 68.5133 207.463 69.9181V70.6843H200.712C200.385 69.6627 200.129 68.3058 199.942 66.6137C199.756 64.8897 199.662 63.2934 199.662 61.8248ZM200.782 39.269L200.852 45.4946H194.311C192.468 45.4946 190.824 45.7021 189.378 46.1172C187.933 46.5003 186.72 47.0909 185.741 47.8891C184.761 48.6872 184.015 49.6929 183.502 50.9061C182.989 52.0874 182.732 53.4761 182.732 55.0724C182.732 56.7007 183.001 58.1852 183.537 59.5261C184.073 60.867 184.878 61.9366 185.95 62.7347C187.047 63.5009 188.387 63.8841 189.973 63.8841C191.955 63.8841 193.704 63.3094 195.22 62.16C196.736 61.0107 197.937 59.606 198.823 57.9458C199.732 56.2856 200.222 54.6734 200.292 53.109L203.055 57.3711C202.892 58.712 202.449 60.1966 201.726 61.8248C201.003 63.4531 200.036 65.0174 198.823 66.5179C197.634 67.9865 196.211 69.2157 194.555 70.2054C192.923 71.1632 191.081 71.6421 189.029 71.6421C186.464 71.6421 184.213 70.9557 182.278 69.5829C180.365 68.21 178.873 66.3743 177.8 64.0756C176.751 61.745 176.226 59.143 176.226 56.2697C176.226 53.4921 176.623 51.0498 177.415 48.9426C178.208 46.8036 179.351 45.0317 180.843 43.6269C182.336 42.1903 184.132 41.1048 186.23 40.3705C188.329 39.6362 190.673 39.269 193.261 39.269H200.782Z" fill="#013179"/>
<path d="M222.784 27.0095V70.6843H216.313V18.8683H222.609L222.784 27.0095ZM234.607 18.581L234.572 26.8179C234.036 26.6583 233.523 26.5625 233.033 26.5306C232.566 26.4667 232.03 26.4348 231.424 26.4348C229.931 26.4348 228.614 26.754 227.471 27.3926C226.328 28.0311 225.361 28.925 224.568 30.0744C223.775 31.2237 223.145 32.5965 222.679 34.1928C222.236 35.7572 221.944 37.4812 221.804 39.3648L219.986 40.8015C219.986 37.6727 220.207 34.7356 220.65 31.9899C221.117 29.2443 221.828 26.8179 222.784 24.7108C223.74 22.5717 224.953 20.9116 226.422 19.7303C227.914 18.5171 229.687 17.9105 231.739 17.9105C232.205 17.9105 232.741 17.9904 233.348 18.15C233.954 18.2777 234.374 18.4214 234.607 18.581Z" fill="#013179"/>
<path d="M247.06 27.0095V70.6843H240.588V18.8683H246.885L247.06 27.0095ZM258.883 18.581L258.848 26.8179C258.312 26.6583 257.798 26.5625 257.309 26.5306C256.842 26.4667 256.306 26.4348 255.7 26.4348C254.207 26.4348 252.89 26.754 251.747 27.3926C250.604 28.0311 249.637 28.925 248.844 30.0744C248.051 31.2237 247.421 32.5965 246.955 34.1928C246.512 35.7572 246.22 37.4812 246.08 39.3648L244.261 40.8015C244.261 37.6727 244.483 34.7356 244.926 31.9899C245.392 29.2443 246.104 26.8179 247.06 24.7108C248.016 22.5717 249.228 20.9116 250.698 19.7303C252.19 18.5171 253.962 17.9105 256.014 17.9105C256.481 17.9105 257.017 17.9904 257.624 18.15C258.23 18.2777 258.65 18.4214 258.883 18.581Z" fill="#013179"/>
<path d="M271.895 18.8683V70.6843H265.389V18.8683H271.895ZM264.899 5.12414C264.899 3.68747 265.214 2.47427 265.844 1.48456C266.497 0.494855 267.453 0 268.712 0C269.948 0 270.892 0.494855 271.545 1.48456C272.222 2.47427 272.56 3.68747 272.56 5.12414C272.56 6.49696 272.222 7.67823 271.545 8.66794C270.892 9.62572 269.948 10.1046 268.712 10.1046C267.453 10.1046 266.497 9.62572 265.844 8.66794C265.214 7.67823 264.899 6.49696 264.899 5.12414Z" fill="#013179"/>
<path d="M297.99 71.6421C295.355 71.6421 292.965 71.0355 290.819 69.8223C288.697 68.5772 286.866 66.8372 285.327 64.6024C283.812 62.3675 282.646 59.7177 281.829 56.6528C281.013 53.5879 280.605 50.2356 280.605 46.5961V44.5847C280.605 40.3705 281.06 36.6192 281.969 33.3308C282.879 30.0105 284.115 27.201 285.677 24.9023C287.24 22.6037 289.012 20.8637 290.994 19.6824C292.976 18.5012 295.028 17.9105 297.15 17.9105C299.855 17.9105 302.187 18.5491 304.146 19.8261C306.128 21.1031 307.749 22.891 309.008 25.1897C310.268 27.4564 311.201 30.1382 311.807 33.235C312.413 36.2999 312.716 39.6521 312.716 43.2917V47.2665H284.453V40.0353H306.245V39.3648C306.152 37.0661 305.802 34.8313 305.196 32.6604C304.613 30.4894 303.68 28.7015 302.397 27.2968C301.115 25.892 299.366 25.1897 297.15 25.1897C295.681 25.1897 294.329 25.6207 293.093 26.4827C291.857 27.3128 290.796 28.5579 289.91 30.218C289.024 31.8782 288.336 33.9055 287.846 36.2999C287.356 38.6944 287.111 41.456 287.111 44.5847V46.5961C287.111 49.0544 287.356 51.369 287.846 53.54C288.359 55.679 289.093 57.5627 290.05 59.1909C291.029 60.8191 292.207 62.0962 293.583 63.0221C294.982 63.9479 296.567 64.4108 298.34 64.4108C300.625 64.4108 302.561 63.7723 304.146 62.4953C305.732 61.2182 307.12 59.5102 308.309 57.3711L312.227 61.6333C311.41 63.3253 310.373 64.9376 309.113 66.47C307.854 68.0025 306.303 69.2476 304.461 70.2054C302.642 71.1632 300.485 71.6421 297.99 71.6421Z" fill="#013179"/>
<path d="M363.467 35.1506L361.887 43.2917H343.344L344.902 35.2463L363.467 35.1506ZM350.182 6.27348L343.826 40.8015L337.213 76H344.902L359.757 6.27348H350.182ZM368.717 6.27348L362.648 39.6522L355.041 76H344.902L359.757 6.27348H368.717Z" fill="#013179"/>
<path d="M368.4 45.351V44.2495C368.4 40.5141 368.796 37.0502 369.589 33.8576C370.382 30.633 371.525 27.8395 373.017 25.477C374.51 23.0825 376.317 21.2309 378.439 19.9219C380.561 18.581 382.94 17.9105 385.575 17.9105C388.233 17.9105 390.623 18.581 392.746 19.9219C394.891 21.2309 396.71 23.0825 398.202 25.477C399.718 27.8395 400.872 30.633 401.665 33.8576C402.458 37.0502 402.855 40.5141 402.855 44.2495V45.351C402.855 49.0863 402.458 52.5503 401.665 55.7429C400.872 58.9355 399.718 61.729 398.202 64.1235C396.71 66.486 394.903 68.3377 392.78 69.6786C390.682 70.9876 388.303 71.6421 385.645 71.6421C382.986 71.6421 380.596 70.9876 378.474 69.6786C376.352 68.3377 374.533 66.486 373.017 64.1235C371.525 61.729 370.382 58.9355 369.589 55.7429C368.796 52.5503 368.4 49.0863 368.4 45.351ZM374.871 44.2495V45.351C374.871 47.937 375.093 50.3793 375.536 52.678C375.979 54.9448 376.643 56.9561 377.529 58.712C378.439 60.468 379.57 61.8567 380.922 62.8784C382.275 63.8681 383.849 64.3629 385.645 64.3629C387.417 64.3629 388.968 63.8681 390.297 62.8784C391.649 61.8567 392.769 60.468 393.655 58.712C394.541 56.9561 395.206 54.9448 395.649 52.678C396.115 50.3793 396.348 47.937 396.348 45.351V44.2495C396.348 41.6954 396.115 39.285 395.649 37.0182C395.206 34.7196 394.529 32.6923 393.62 30.9364C392.734 29.1485 391.614 27.7438 390.262 26.7221C388.933 25.7005 387.37 25.1897 385.575 25.1897C383.802 25.1897 382.24 25.7005 380.887 26.7221C379.558 27.7438 378.439 29.1485 377.529 30.9364C376.643 32.6923 375.979 34.7196 375.536 37.0182C375.093 39.285 374.871 41.6954 374.871 44.2495Z" fill="#013179"/>
<path d="M426.816 18.8683V25.6686H406.353V18.8683H426.816ZM413.278 6.27348H419.75V57.85C419.75 59.606 419.948 60.9309 420.344 61.8248C420.741 62.7188 421.254 63.3094 421.883 63.5967C422.513 63.8841 423.189 64.0277 423.912 64.0277C424.449 64.0277 425.008 63.9639 425.591 63.8362C426.198 63.6765 426.652 63.5488 426.955 63.4531L426.99 70.6843C426.477 70.9078 425.801 71.1153 424.962 71.3069C424.145 71.5303 423.154 71.6421 421.988 71.6421C420.403 71.6421 418.945 71.2111 417.616 70.3491C416.287 69.4871 415.226 68.0504 414.433 66.039C413.663 63.9958 413.278 61.2502 413.278 57.8021V6.27348Z" fill="#013179"/>
<path d="M450.252 18.8683V25.6686H429.789V18.8683H450.252ZM436.715 6.27348H443.186V57.85C443.186 59.606 443.384 60.9309 443.781 61.8248C444.177 62.7188 444.69 63.3094 445.32 63.5967C445.949 63.8841 446.626 64.0277 447.348 64.0277C447.885 64.0277 448.445 63.9639 449.028 63.8362C449.634 63.6765 450.089 63.5488 450.392 63.4531L450.427 70.6843C449.914 70.9078 449.237 71.1153 448.398 71.3069C447.582 71.5303 446.591 71.6421 445.425 71.6421C443.839 71.6421 442.381 71.2111 441.052 70.3491C439.723 69.4871 438.662 68.0504 437.869 66.039C437.1 63.9958 436.715 61.2502 436.715 57.8021V6.27348Z" fill="#013179"/>
<ellipse cx="146.69" cy="44.6385" rx="21.4574" ry="25.9014" fill="#E1A46C"/>
</svg>
